# File generated by ImageToStl.com - Free Image and 3D model conversion tools

o obj1
v 1.222472 -0.197473 2.611249
v 1.222472 -0.197473 2.680378
v 1.231309 -0.211008 2.611249
v 1.231309 -0.211008 2.694827
v 1.240144 -0.22454 2.611249
v 1.240144 -0.22454 2.680378
v 1.173594 -0.14582 2.676228
v 1.173594 -0.14582 2.619204
v 1.166136 -0.134397 2.688144
v 1.166136 -0.134397 2.619204
v 1.158678 -0.122974 2.676228
v 1.158678 -0.122974 2.619204
v 0.596634 -0.571136 3.008711
v 0.596634 -0.571136 3.03154
v 0.592804 -0.573637 3.008711
v 0.592804 -0.573637 3.03154
v -1.321191 -0.611552 2.576067
v -1.321191 -0.611552 2.663558
v -1.327449 -0.601966 2.576067
v -1.327449 -0.601966 2.681838
v -1.333709 -0.592377 2.576067
v -1.333709 -0.592377 2.663558
v -1.364766 -0.544808 2.663558
v -1.364766 -0.544808 2.576067
v -1.358506 -0.554397 2.681838
v -1.358506 -0.554397 2.576067
v -1.352245 -0.563986 2.663558
v -1.352245 -0.563986 2.576067
v 0.596634 -0.571136 2.930248
v 0.596634 -0.571136 2.953077
v 0.592804 -0.573637 2.930248
v 0.592804 -0.573637 2.953077
v -1.238374 -0.738399 2.576067
v -1.238374 -0.738399 2.663558
v -1.244635 -0.72881 2.576067
v -1.244635 -0.72881 2.681838
v -1.250895 -0.719221 2.576067
v -1.250895 -0.719221 2.663558
v 0.120183 -0.732289 2.714077
v 0.120183 -0.732289 2.685411
v 0.125389 -0.740263 2.72007
v 0.125389 -0.740263 2.685411
v 0.130593 -0.748234 2.714077
v 0.130593 -0.748234 2.685411
v -1.219841 -0.766787 2.663558
v -1.219841 -0.766787 2.576067
v -1.21358 -0.776376 2.681838
v -1.21358 -0.776376 2.576067
v -1.20732 -0.785965 2.663558
v -1.20732 -0.785965 2.576067
v 0.438746 -0.831732 2.841917
v 0.439314 -0.832601 2.856862
v 0.445481 -0.827335 2.841917
v 0.446166 -0.828384 2.859982
v 0.452216 -0.822937 2.841917
v 0.452784 -0.823807 2.856862
v 0.596328 -0.382334 2.69688
v 0.596328 -0.382334 2.674929
v 0.609864 -0.373496 2.701466
v 0.609864 -0.373496 2.674929
v 0.623395 -0.364662 2.69688
v 0.623395 -0.364662 2.674929
v 0.558646 -0.443829 2.969197
v 0.558646 -0.443829 2.992026
v 0.561351 -0.447971 2.969197
v 0.561351 -0.447971 2.992026
v 0.126868 -0.742468 2.610241
v 0.126868 -0.742468 2.640685
v 0.11941 -0.731045 2.610241
v 0.11941 -0.731045 2.647045
v 0.111953 -0.719622 2.610241
v 0.111953 -0.719622 2.640685
v 0.586796 -0.486945 2.893487
v 0.586796 -0.486945 2.870653
v 0.580431 -0.477196 2.893487
v 0.580431 -0.477196 2.870653
v 0.532066 -0.613291 2.930248
v 0.532066 -0.613291 2.953077
v 0.528241 -0.615789 2.930248
v 0.528241 -0.615789 2.953077
v 0.528241 -0.615789 2.992026
v 0.528241 -0.615789 2.969197
v 0.532066 -0.613291 2.992026
v 0.532066 -0.613291 2.969197
v 0.556802 -0.597142 3.03154
v 0.556802 -0.597142 3.008711
v 0.565808 -0.591262 3.03154
v 0.565808 -0.591262 3.008711
v 0.770569 -0.713581 2.752239
v 0.762566 -0.718806 2.752239
v 0.770569 -0.713581 2.776539
v 0.762566 -0.718806 2.776539
v -0.339508 -0.653131 3.089589
v -0.339508 -0.653131 3.107061
v -0.341516 -0.656219 3.089589
v -0.341516 -0.656219 3.101413
v 0.910255 -0.177377 2.674929
v 0.910255 -0.177377 2.69688
v 0.896718 -0.186215 2.674929
v 0.896718 -0.186215 2.701466
v 0.883187 -0.195049 2.674929
v 0.883187 -0.195049 2.69688
v 0.778274 -0.183595 2.585908
v 0.778274 -0.183595 2.534915
v 0.791805 -0.174761 2.596558
v 0.791805 -0.174761 2.534915
v 0.805341 -0.165923 2.585908
v 0.805341 -0.165923 2.534915
v 0.565808 -0.591262 2.930248
v 0.565808 -0.591262 2.953077
v 0.556802 -0.597142 2.930248
v 0.556802 -0.597142 2.953077
v 0.450724 -0.820652 2.728725
v 0.450724 -0.820652 2.708483
v 0.443989 -0.825049 2.732956
v 0.443989 -0.825049 2.708483
v 0.437254 -0.829447 2.728725
v 0.437254 -0.829447 2.708483
vn 5.8815 3.8399 0.0153
vn 3.8399 -5.8815 0.0153
vn -5.8815 -3.8399 0.0153
vn -3.8311 5.868 0.4753
vn -3.8399 5.8815 0.0153
vn 5.8867 -3.832 0.0153
f 1//1 2//1 3//1
f 2//1 4//1 3//1
f 3//1 4//1 5//1
f 4//1 6//1 5//1
f 5//1 6//1 6//1
f 6//1 7//1 6//1
f 6//1 7//1 7//1
f 7//1 8//1 7//1
f 7//1 8//1 9//1
f 8//1 10//1 9//1
f 9//1 10//1 11//1
f 10//1 12//1 11//1
f 11//1 12//1 12//1
f 12//1 13//2 12//1
f 12//1 13//2 13//2
f 13//2 14//2 13//2
f 13//2 14//2 15//2
f 14//2 16//2 15//2
f 15//2 16//2 16//2
f 16//2 17//3 16//2
f 16//2 17//3 17//3
f 17//3 18//3 17//3
f 17//3 18//3 19//3
f 18//3 20//3 19//3
f 19//3 20//3 21//3
f 20//3 22//3 21//3
f 21//3 22//3 22//3
f 22//3 23//3 22//3
f 22//3 23//3 23//3
f 23//3 24//3 23//3
f 23//3 24//3 25//3
f 24//3 26//3 25//3
f 25//3 26//3 27//3
f 26//3 28//3 27//3
f 27//3 28//3 28//3
f 28//3 29//2 28//3
f 28//3 29//2 29//2
f 29//2 30//2 29//2
f 29//2 30//2 31//2
f 30//2 32//2 31//2
f 31//2 32//2 32//2
f 32//2 33//3 32//2
f 32//2 33//3 33//3
f 33//3 34//3 33//3
f 33//3 34//3 35//3
f 34//3 36//3 35//3
f 35//3 36//3 37//3
f 36//3 38//3 37//3
f 37//3 38//3 38//3
f 38//3 39//3 38//3
f 38//3 39//3 39//3
f 39//3 40//3 39//3
f 39//3 40//3 41//3
f 40//3 42//3 41//3
f 41//3 42//3 43//3
f 42//3 44//3 43//3
f 43//3 44//3 44//3
f 44//3 45//3 44//3
f 44//3 45//3 45//3
f 45//3 46//3 45//3
f 45//3 46//3 47//3
f 46//3 48//3 47//3
f 47//3 48//3 49//3
f 48//3 50//3 49//3
f 49//3 50//3 50//3
f 50//3 51//4 50//3
f 50//3 51//4 51//4
f 51//4 52//4 51//4
f 51//4 52//4 53//4
f 52//4 54//4 53//4
f 53//4 54//4 55//4
f 54//4 56//4 55//4
f 55//4 56//4 56//4
f 56//4 57//2 56//4
f 56//4 57//2 57//2
f 57//2 58//2 57//2
f 57//2 58//2 59//2
f 58//2 60//2 59//2
f 59//2 60//2 61//2
f 60//2 62//2 61//2
f 61//2 62//2 62//2
f 62//2 63//1 62//2
f 62//2 63//1 63//1
f 63//1 64//1 63//1
f 63//1 64//1 65//1
f 64//1 66//1 65//1
f 65//1 66//1 66//1
f 66//1 67//3 66//1
f 66//1 67//3 67//3
f 67//3 68//3 67//3
f 67//3 68//3 69//3
f 68//3 70//3 69//3
f 69//3 70//3 71//3
f 70//3 72//3 71//3
f 71//3 72//3 72//3
f 72//3 73//1 72//3
f 72//3 73//1 73//1
f 73//1 74//1 73//1
f 73//1 74//1 75//1
f 74//1 76//1 75//1
f 75//1 76//1 76//1
f 76//1 77//2 76//1
f 76//1 77//2 77//2
f 77//2 78//2 77//2
f 77//2 78//2 79//2
f 78//2 80//2 79//2
f 79//2 80//2 80//2
f 80//2 81//2 80//2
f 80//2 81//2 81//2
f 81//2 82//2 81//2
f 81//2 82//2 83//2
f 82//2 84//2 83//2
f 83//2 84//2 84//2
f 84//2 85//2 84//2
f 84//2 85//2 85//2
f 85//2 86//2 85//2
f 85//2 86//2 87//2
f 86//2 88//2 87//2
f 87//2 88//2 88//2
f 88//2 89//5 88//2
f 88//2 89//5 89//5
f 89//5 90//5 89//5
f 89//5 90//5 91//5
f 90//5 92//5 91//5
f 91//5 92//5 92//5
f 92//5 93//6 92//5
f 92//5 93//6 93//6
f 93//6 94//6 93//6
f 93//6 94//6 95//6
f 94//6 96//6 95//6
f 95//6 96//6 96//6
f 96//6 97//2 96//6
f 96//6 97//2 97//2
f 97//2 98//2 97//2
f 97//2 98//2 99//2
f 98//2 100//2 99//2
f 99//2 100//2 101//2
f 100//2 102//2 101//2
f 101//2 102//2 102//2
f 102//2 103//2 102//2
f 102//2 103//2 103//2
f 103//2 104//2 103//2
f 103//2 104//2 105//2
f 104//2 106//2 105//2
f 105//2 106//2 107//2
f 106//2 108//2 107//2
f 107//2 108//2 108//2
f 108//2 109//2 108//2
f 108//2 109//2 109//2
f 109//2 110//2 109//2
f 109//2 110//2 111//2
f 110//2 112//2 111//2
f 111//2 112//2 112//2
f 112//2 113//5 112//2
f 112//2 113//5 113//5
f 113//5 114//5 113//5
f 113//5 114//5 115//5
f 114//5 116//5 115//5
f 115//5 116//5 117//5
f 116//5 118//5 117//5
# Vertices: 118, normals: 6, texture coordinates: 0, faces: 160

