# File generated by ImageToStl.com - Free Image and 3D model conversion tools

o obj1
v 0.416902 2.064549 1.319726
v 0.608146 2.167572 1.070018
v 0.303636 2.115161 1.255736
v 0.432434 2.201815 1.058036
v 1.986087 0.520494 1.065289
v 1.795779 0.476164 1.200472
v 2.02324 0.375083 1.04878
v 1.867132 0.303549 1.107684
v 1.36533 -1.1941 1.097782
v 1.23838 -1.283102 1.086795
v 1.466206 -1.366167 1.048769
v 1.333531 -1.427638 1.048718
v -0.78545 -1.630921 2.187229
v -0.914551 -1.701893 2.104208
v -0.721809 -1.674531 2.021287
v -0.901353 -1.72457 1.955843
v -0.704721 -1.442148 2.469749
v -0.794513 -1.665454 2.465178
v -0.654057 -1.527353 2.11567
v 2.162648 -0.518159 1.049801
v 2.095591 -0.606314 1.049392
v 2.245904 -0.653876 1.049514
v 2.171322 -0.735766 1.049262
v 0.036017 2.192555 1.051065
v -0.041313 2.126698 1.137333
v 0.170012 2.120117 1.137334
v 0.100232 2.129789 1.366515
v 0.025339 2.339716 1.048685
v -0.063925 2.246072 1.048504
v 0.13341 2.272219 1.048868
v 0.954338 1.748954 1.570727
v 0.72009 1.536901 2.146189
v 1.46964 1.867885 1.082882
v 0.943785 1.603615 2.218155
v 1.993141 1.145818 1.09521
v 1.821471 1.112367 1.330771
v 2.035379 0.937753 1.107659
v 1.785322 0.919435 1.326841
v 1.693079 0.256925 1.252204
v 1.903146 0.149065 1.076342
v 1.761523 0.066945 1.284263
v 2.01727 -0.123967 1.186484
v 2.00933 -0.185359 1.515223
v 2.042305 -0.210612 1.140321
v 2.022428 -0.341971 1.417183
v -0.720508 -2.052717 1.048787
v -0.846833 -2.117201 1.048795
v -0.665971 -2.093164 1.048767
v -0.793732 -2.158731 1.048851
v 0.384275 -0.785152 2.454691
v 0.281455 -0.897047 2.506789
v 0.490889 -1.036201 2.396311
v 0.353376 -1.136215 2.280228
v 1.698726 -0.518695 2.229942
v 1.308801 -0.364907 2.292487
v 1.857818 -0.651802 1.765311
v 1.824178 -0.755107 2.209391
v -0.361182 -1.462008 1.439018
v -0.457471 -1.59241 1.477154
v -0.285695 -1.633606 1.166896
v -0.406108 -1.694425 1.073532
v 1.462576 0.235252 1.49769
v 1.292026 0.293443 2.347604
v 1.57284 -0.041006 1.44988
v 1.547368 0.017662 2.491379
v -0.557187 -1.16312 2.139407
v -0.775973 -1.116503 1.960664
v -0.516907 -1.267817 2.031073
v -0.699811 -1.190928 2.168746
v -0.400774 -1.160161 1.540061
v -0.448607 -1.122521 2.272827
v 1.339054 0.538604 2.11837
v 1.544171 0.445972 1.444043
v 1.462091 0.647213 2.432883
v 1.450513 0.622947 1.743745
v 1.433903 0.706422 2.479047
v 1.520945 0.704441 2.035779
v 1.443685 0.759324 2.481319
v 1.443205 0.745178 2.139047
v 0.434289 1.44006 2.330248
v 0.266007 1.388364 2.454208
v 0.411588 1.850983 1.895236
v 0.044995 1.458904 2.455466
v 0.313816 1.633037 2.43422
v -0.085452 1.628516 2.454344
v 0.207234 1.655137 2.424878
v -0.073455 1.801708 2.245125
v 0.162365 2.048615 1.732079
v -0.029888 2.166864 1.62598
v 0.619815 -1.513585 1.483059
v 0.737665 -1.456972 1.46581
v 0.560802 -1.240515 2.143057
v 0.689534 -1.146672 2.182544
v 0.908829 -1.474068 1.315314
v 0.752391 -1.081326 1.979678
v 1.446048 -0.918929 1.821486
v 1.298283 -1.017041 1.929724
v 1.634836 -1.080135 1.062587
v 1.50198 -1.155167 1.086891
v 0.528899 -1.692984 1.395329
v 0.410177 -1.898649 1.276734
v 0.627536 -1.939574 1.117481
v 0.470695 -1.938819 1.073536
v -0.228846 -2.052967 1.048384
v -0.344395 -2.081215 1.048558
v -0.165885 -2.132163 1.047582
v -0.282557 -2.157199 1.047555
v 1.045517 1.16758 2.39377
v 0.856443 0.92599 2.376351
v 1.128481 0.962338 2.17662
v 1.087096 0.813306 2.356977
v -0.59317 -1.337508 2.190595
v -0.476778 -1.35878 1.893255
vn 0.0753 0.4845 0.2736
vn 0.4773 -0.1092 0.7597
vn 0.1766 -0.4519 2.0297
vn 0.1231 -0.4747 0.152
vn 0.411 -0.2675 0.0304
vn -0.0215 -0.037 13.8628
vn 0.0163 0.4901 0.0912
vn -0.0494 0.2016 12.6086
vn -0.0613 0.4865 0.0912
vn 0.4898 0.017 0.456
vn 0.4684 0.1444 0.456
vn 0.4874 0.0539 0.0304
vn 0.0018 0.0084 13.9138
vn 0.1668 -0.4601 0.8811
vn 0.4446 0.2066 0.3344
vn 0.2924 -0.3936 0.2128
vn 0.4065 0.2743 0.0304
vn 0.0682 0.4848 0.8204
vn 0.3661 -0.3263 0.0912
vn 0.4386 -0.2193 0.0912
vn 0.4185 0.2556 0.0304
vn 0.1437 0.4686 0.456
vn 0.1843 0.4348 3.7532
vn 0.1683 0.4605 0.2128
vn 0.2428 -0.426 0.2128
vn 0.3828 -0.3065 0.2128
vn 0.307 -0.3823 0.152
vn 0.1515 -0.4663 0.3344
vn 0.0385 -0.1254 13.4084
vn 0.4898 -0.0102 0.6382
vn 0.4674 0.148 0.2736
f 1//1 2//1 3//1
f 2//1 4//1 3//1
f 3//1 4//1 4//1
f 4//1 5//2 4//1
f 4//1 5//2 5//2
f 5//2 6//2 5//2
f 5//2 6//2 7//2
f 6//2 8//2 7//2
f 7//2 8//2 8//2
f 8//2 9//3 8//2
f 8//2 9//3 9//3
f 9//3 10//3 9//3
f 9//3 10//3 11//3
f 10//3 12//3 11//3
f 11//3 12//3 12//3
f 12//3 13//4 12//3
f 12//3 13//4 13//4
f 13//4 14//4 13//4
f 13//4 14//4 15//4
f 14//4 16//4 15//4
f 15//4 16//4 16//4
f 16//4 17//5 16//4
f 16//4 17//5 17//5
f 17//5 18//5 17//5
f 17//5 18//5 19//5
f 18//5 13//5 19//5
f 19//5 13//5 13//5
f 13//5 20//6 13//5
f 13//5 20//6 20//6
f 20//6 21//6 20//6
f 20//6 21//6 22//6
f 21//6 23//6 22//6
f 22//6 23//6 23//6
f 23//6 24//7 23//6
f 23//6 24//7 24//7
f 24//7 25//7 24//7
f 24//7 25//7 26//7
f 25//7 27//7 26//7
f 26//7 27//7 27//7
f 27//7 28//8 27//7
f 27//7 28//8 28//8
f 28//8 29//8 28//8
f 28//8 29//8 30//8
f 29//8 24//8 30//8
f 30//8 24//8 24//8
f 24//8 31//9 24//8
f 24//8 31//9 31//9
f 31//9 32//9 31//9
f 31//9 32//9 33//9
f 32//9 34//9 33//9
f 33//9 34//9 34//9
f 34//9 35//10 34//9
f 34//9 35//10 35//10
f 35//10 36//10 35//10
f 35//10 36//10 37//10
f 36//10 38//10 37//10
f 37//10 38//10 38//10
f 38//10 8//11 38//10
f 38//10 8//11 8//11
f 8//11 39//11 8//11
f 8//11 39//11 40//11
f 39//11 41//11 40//11
f 40//11 41//11 41//11
f 41//11 42//12 41//11
f 41//11 42//12 42//12
f 42//12 43//12 42//12
f 42//12 43//12 44//12
f 43//12 45//12 44//12
f 44//12 45//12 45//12
f 45//12 46//13 45//12
f 45//12 46//13 46//13
f 46//13 47//13 46//13
f 46//13 47//13 48//13
f 47//13 49//13 48//13
f 48//13 49//13 49//13
f 49//13 50//14 49//13
f 49//13 50//14 50//14
f 50//14 51//14 50//14
f 50//14 51//14 52//14
f 51//14 53//14 52//14
f 52//14 53//14 53//14
f 53//14 54//15 53//14
f 53//14 54//15 54//15
f 54//15 55//15 54//15
f 54//15 55//15 56//15
f 55//15 57//15 56//15
f 56//15 57//15 57//15
f 57//15 58//16 57//15
f 57//15 58//16 58//16
f 58//16 59//16 58//16
f 58//16 59//16 60//16
f 59//16 61//16 60//16
f 60//16 61//16 61//16
f 61//16 62//17 61//16
f 61//16 62//17 62//17
f 62//17 63//17 62//17
f 62//17 63//17 64//17
f 63//17 65//17 64//17
f 64//17 65//17 65//17
f 65//17 66//18 65//17
f 65//17 66//18 66//18
f 66//18 67//18 66//18
f 66//18 67//18 68//18
f 67//18 69//18 68//18
f 68//18 69//18 69//18
f 69//18 68//19 69//18
f 69//18 68//19 68//19
f 68//19 70//19 68//19
f 68//19 70//19 66//19
f 70//19 71//19 66//19
f 66//19 71//19 71//19
f 71//19 72//20 71//19
f 71//19 72//20 72//20
f 72//20 73//20 72//20
f 72//20 73//20 74//20
f 73//20 75//20 74//20
f 74//20 75//20 75//20
f 75//20 76//21 75//20
f 75//20 76//21 76//21
f 76//21 77//21 76//21
f 76//21 77//21 78//21
f 77//21 79//21 78//21
f 78//21 79//21 79//21
f 79//21 80//22 79//21
f 79//21 80//22 80//22
f 80//22 32//22 80//22
f 80//22 32//22 81//22
f 32//22 82//22 81//22
f 81//22 82//22 82//22
f 82//22 83//23 82//22
f 82//22 83//23 83//23
f 83//23 84//23 83//23
f 83//23 84//23 85//23
f 84//23 86//23 85//23
f 85//23 86//23 86//23
f 86//23 87//24 86//23
f 86//23 87//24 87//24
f 87//24 88//24 87//24
f 87//24 88//24 89//24
f 88//24 27//24 89//24
f 89//24 27//24 27//24
f 27//24 90//25 27//24
f 27//24 90//25 90//25
f 90//25 91//25 90//25
f 90//25 91//25 92//25
f 91//25 93//25 92//25
f 92//25 93//25 93//25
f 93//25 91//26 93//25
f 93//25 91//26 91//26
f 91//26 94//26 91//26
f 91//26 94//26 93//26
f 94//26 95//26 93//26
f 93//26 95//26 95//26
f 95//26 96//27 95//26
f 95//26 96//27 96//27
f 96//27 97//27 96//27
f 96//27 97//27 98//27
f 97//27 99//27 98//27
f 98//27 99//27 99//27
f 99//27 100//28 99//27
f 99//27 100//28 100//28
f 100//28 101//28 100//28
f 100//28 101//28 102//28
f 101//28 103//28 102//28
f 102//28 103//28 103//28
f 103//28 104//29 103//28
f 103//28 104//29 104//29
f 104//29 105//29 104//29
f 104//29 105//29 106//29
f 105//29 107//29 106//29
f 106//29 107//29 107//29
f 107//29 108//30 107//29
f 107//29 108//30 108//30
f 108//30 109//30 108//30
f 108//30 109//30 110//30
f 109//30 111//30 110//30
f 110//30 111//30 111//30
f 111//30 112//31 111//30
f 111//30 112//31 112//31
f 112//31 113//31 112//31
f 112//31 113//31 69//31
f 113//31 68//31 69//31
# Vertices: 113, normals: 31, texture coordinates: 0, faces: 182

