# File generated by ImageToStl.com - Free Image and 3D model conversion tools

o obj1
v 0.066809 -0.145788 3.686686
v 0.059808 -0.135064 3.71761
v 0.059808 -0.135064 3.655762
v 0.026 -0.083281 3.655762
v 0.042905 -0.109174 3.642957
v 0.026 -0.083281 3.71761
v 0.018999 -0.072558 3.686686
v 0.042905 -0.109174 3.730415
vn -5.8815 -3.8399 0.0153
f 1//1 2//1 3//1
f 2//1 4//1 3//1
f 3//1 4//1 5//1
f 4//1 5//1 5//1
f 5//1 5//1 2//1
f 5//1 2//1 2//1
f 2//1 2//1 2//1
f 2//1 6//1 2//1
f 2//1 6//1 4//1
f 6//1 7//1 4//1
f 2//1 8//1 6//1
# Vertices: 8, normals: 1, texture coordinates: 0, faces: 11

